<svg xmlns="http://www.w3.org/2000/svg" xmlns:xlink="http://www.w3.org/1999/xlink" width="1000" zoomAndPan="magnify" viewBox="0 0 750 374.999991" height="500" preserveAspectRatio="xMidYMid meet" version="1.0"><defs><g/><clipPath id="89b3993b6e"><path d="M 63 0.0390625 L 92 0.0390625 L 92 106 L 63 106 Z M 63 0.0390625 " clip-rule="nonzero"/></clipPath><clipPath id="622966b09d"><rect x="0" width="107" y="0" height="107"/></clipPath><clipPath id="4b725a2814"><path d="M 0.238281 63 L 105.601562 63 L 105.601562 92 L 0.238281 92 Z M 0.238281 63 " clip-rule="nonzero"/></clipPath><clipPath id="3a5d5f3213"><path d="M 0.238281 0.601562 L 105 0.601562 L 105 28.441406 L 0.238281 28.441406 Z M 0.238281 0.601562 " clip-rule="nonzero"/></clipPath><clipPath id="9d8cf5b145"><rect x="0" width="106" y="0" height="29"/></clipPath><clipPath id="8e2e11f087"><rect x="0" width="106" y="0" height="107"/></clipPath><clipPath id="2afcd97999"><path d="M 14 0.0390625 L 43 0.0390625 L 43 106 L 14 106 Z M 14 0.0390625 " clip-rule="nonzero"/></clipPath><clipPath id="e46fd6ce34"><rect x="0" width="107" y="0" height="107"/></clipPath><clipPath id="66103e2ad1"><path d="M 66 0 L 94 0 L 94 108.960938 L 66 108.960938 Z M 66 0 " clip-rule="nonzero"/></clipPath><clipPath id="e8e1421482"><rect x="0" width="110" y="0" height="109"/></clipPath><clipPath id="532e6fed4c"><rect x="0" width="433" y="0" height="221"/></clipPath></defs><g transform="matrix(1, 0, 0, 1, 576, 47)"><g clip-path="url(#622966b09d)"><path stroke-linecap="butt" transform="matrix(-1.469586, 0, 0, -1.469586, 91.318266, 42.537061)" fill="none" stroke-linejoin="miter" d="M 0.00126548 9.501209 L 51.987642 9.501209 " stroke="#e4e2dd" stroke-width="19" stroke-opacity="1" stroke-miterlimit="4"/><g clip-path="url(#89b3993b6e)"><path stroke-linecap="butt" transform="matrix(0, -1.469586, 1.469586, 0, 63.636646, 91.250964)" fill="none" stroke-linejoin="miter" d="M 0.000655778 9.499963 L 51.987032 9.499963 " stroke="#e4e2dd" stroke-width="19" stroke-opacity="1" stroke-miterlimit="4"/></g></g></g><g transform="matrix(1, 0, 0, 1, 66, 222)"><g clip-path="url(#8e2e11f087)"><g clip-path="url(#4b725a2814)"><g transform="matrix(1, 0, 0, 1, 0, 63)"><g clip-path="url(#9d8cf5b145)"><g clip-path="url(#3a5d5f3213)"><path stroke-linecap="butt" transform="matrix(2.287049, 0, 0, 2.287049, 14.029633, 0.761173)" fill="none" stroke-linejoin="miter" d="M 0.000707189 6.000396 L 33.405511 6.000396 " stroke="#e4e2dd" stroke-width="12" stroke-opacity="1" stroke-miterlimit="4"/></g></g></g></g><path stroke-linecap="butt" transform="matrix(0, 2.287049, -2.287049, 0, 41.457717, 14.823236)" fill="none" stroke-linejoin="miter" d="M 0.000429506 6.000457 L 33.405233 6.000457 " stroke="#e4e2dd" stroke-width="12" stroke-opacity="1" stroke-miterlimit="4"/></g></g><g transform="matrix(1, 0, 0, 1, 65, 47)"><g clip-path="url(#e46fd6ce34)"><g clip-path="url(#2afcd97999)"><path stroke-linecap="butt" transform="matrix(0, 1.469586, -1.469586, 0, 42.682717, 14.855462)" fill="none" stroke-linejoin="miter" d="M 0.00000436303 9.499317 L 51.986381 9.499317 " stroke="#e4e2dd" stroke-width="19" stroke-opacity="1" stroke-miterlimit="4"/></g><path stroke-linecap="butt" transform="matrix(-1.469586, 0, 0, -1.469586, 91.39662, 42.537061)" fill="none" stroke-linejoin="miter" d="M -0.00123652 9.501209 L 51.987798 9.501209 " stroke="#e4e2dd" stroke-width="19" stroke-opacity="1" stroke-miterlimit="4"/></g></g><g transform="matrix(1, 0, 0, 1, 576, 222)"><g clip-path="url(#e8e1421482)"><g clip-path="url(#66103e2ad1)"><path stroke-linecap="butt" transform="matrix(0, -1.469586, 1.469586, 0, 66.028971, 94.124511)" fill="none" stroke-linejoin="miter" d="M -0.000332583 9.498806 L 53.971616 9.498806 " stroke="#e4e2dd" stroke-width="19" stroke-opacity="1" stroke-miterlimit="4"/></g><path stroke-linecap="butt" transform="matrix(1.469586, 0, 0, 1.469586, 14.922744, 65.919005)" fill="none" stroke-linejoin="miter" d="M -0.00059113 9.499208 L 53.971358 9.499208 " stroke="#e4e2dd" stroke-width="19" stroke-opacity="1" stroke-miterlimit="4"/></g></g><g transform="matrix(1, 0, 0, 1, 157, 77)"><g clip-path="url(#532e6fed4c)"><g fill="#e4e2dd" fill-opacity="1"><g transform="translate(1.721058, 161.822484)"><g><path d="M 11.59375 0 L 11.59375 -80.09375 L 28.828125 -80.09375 L 31.890625 -69.421875 C 34.535156 -73.179688 37.789062 -75.898438 41.65625 -77.578125 C 45.519531 -79.253906 50.398438 -80.09375 56.296875 -80.09375 L 64.984375 -80.09375 L 64.984375 -59.046875 L 56.140625 -59.046875 C 49.523438 -59.046875 44.3125 -57.265625 40.5 -53.703125 C 36.6875 -50.140625 34.78125 -44.035156 34.78125 -35.390625 L 34.78125 0 Z M 11.59375 0 "/></g></g></g><g fill="#e4e2dd" fill-opacity="1"><g transform="translate(68.381025, 161.822484)"><g><path d="M 30.96875 0 L 1.375 -80.09375 L 25.9375 -80.09375 L 35.234375 -53.546875 L 43.171875 -31.125 L 51.40625 -53.546875 L 61.328125 -80.09375 L 80.09375 -80.09375 L 90.015625 -53.546875 L 98.25 -30.96875 L 106.1875 -53.546875 L 115.640625 -80.09375 L 140.046875 -80.09375 L 110.453125 0 L 88.9375 0 L 70.78125 -48.8125 L 52.484375 0 Z M 30.96875 0 "/></g></g></g><g fill="#e4e2dd" fill-opacity="1"><g transform="translate(206.278061, 161.822484)"><g><path d="M 3.65625 0 L 32.1875 -40.734375 L 4.875 -80.09375 L 31.125 -80.09375 L 46.6875 -56.453125 L 54.15625 -67.890625 L 62.390625 -80.09375 L 88.640625 -80.09375 L 61.484375 -40.734375 L 89.859375 0 L 63.15625 0 L 54.46875 -12.8125 L 46.84375 -24.25 L 39.0625 -12.8125 L 30.359375 0 Z M 3.65625 0 "/></g></g></g><g fill="#5783fc" fill-opacity="1"><g transform="translate(296.290786, 161.822484)"><g><path d="M 2.28125 23.5 L 2.28125 9 L 67.890625 9 L 67.890625 23.5 Z M 2.28125 23.5 "/></g></g></g><g fill="#e4e2dd" fill-opacity="1"><g transform="translate(362.968456, 161.822484)"><g><path d="M 50.1875 0 C 40.019531 0 32.210938 -2.617188 26.765625 -7.859375 C 21.328125 -13.097656 18.609375 -20.597656 18.609375 -30.359375 L 18.609375 -61.171875 L 3.046875 -61.171875 L 3.046875 -80.09375 L 10.21875 -80.09375 C 14.59375 -80.09375 17.566406 -80.800781 19.140625 -82.21875 C 20.722656 -83.644531 21.816406 -86.394531 22.421875 -90.46875 L 23.796875 -100.84375 L 41.796875 -100.84375 L 41.796875 -80.09375 L 63.765625 -80.09375 L 63.765625 -61.171875 L 41.796875 -61.171875 L 41.796875 -33.875 C 41.796875 -24.71875 46.273438 -20.140625 55.234375 -20.140625 L 64.84375 -20.140625 L 64.84375 0 Z M 50.1875 0 "/></g></g></g></g></g></svg>