<svg xmlns="http://www.w3.org/2000/svg" xmlns:xlink="http://www.w3.org/1999/xlink" width="1000" zoomAndPan="magnify" viewBox="0 0 750 374.999991" height="500" preserveAspectRatio="xMidYMid meet" version="1.0"><defs><g/><clipPath id="a5409760a2"><path d="M 63 0.0390625 L 92 0.0390625 L 92 106 L 63 106 Z M 63 0.0390625 " clip-rule="nonzero"/></clipPath><clipPath id="e096457e5f"><rect x="0" width="107" y="0" height="107"/></clipPath><clipPath id="e39a2d2738"><path d="M 0.238281 63 L 105.601562 63 L 105.601562 92 L 0.238281 92 Z M 0.238281 63 " clip-rule="nonzero"/></clipPath><clipPath id="e15c98a000"><path d="M 0.238281 0.601562 L 105 0.601562 L 105 28.441406 L 0.238281 28.441406 Z M 0.238281 0.601562 " clip-rule="nonzero"/></clipPath><clipPath id="7b643ade5d"><rect x="0" width="106" y="0" height="29"/></clipPath><clipPath id="bf2145d3cf"><rect x="0" width="106" y="0" height="107"/></clipPath><clipPath id="0cf95fce7a"><path d="M 14 0.0390625 L 43 0.0390625 L 43 106 L 14 106 Z M 14 0.0390625 " clip-rule="nonzero"/></clipPath><clipPath id="5f8404b2d5"><rect x="0" width="107" y="0" height="107"/></clipPath><clipPath id="0b8adc63d2"><path d="M 66 0 L 94 0 L 94 108.960938 L 66 108.960938 Z M 66 0 " clip-rule="nonzero"/></clipPath><clipPath id="435b42a79d"><rect x="0" width="110" y="0" height="109"/></clipPath></defs><g transform="matrix(1, 0, 0, 1, 576, 47)"><g clip-path="url(#e096457e5f)"><path stroke-linecap="butt" transform="matrix(-1.469586, 0, 0, -1.469586, 91.318266, 42.537061)" fill="none" stroke-linejoin="miter" d="M 0.00126548 9.501209 L 51.987642 9.501209 " stroke="#2b2b2b" stroke-width="19" stroke-opacity="1" stroke-miterlimit="4"/><g clip-path="url(#a5409760a2)"><path stroke-linecap="butt" transform="matrix(0, -1.469586, 1.469586, 0, 63.636646, 91.250964)" fill="none" stroke-linejoin="miter" d="M 0.000655778 9.499963 L 51.987032 9.499963 " stroke="#2b2b2b" stroke-width="19" stroke-opacity="1" stroke-miterlimit="4"/></g></g></g><g transform="matrix(1, 0, 0, 1, 66, 222)"><g clip-path="url(#bf2145d3cf)"><g clip-path="url(#e39a2d2738)"><g transform="matrix(1, 0, 0, 1, 0, 63)"><g clip-path="url(#7b643ade5d)"><g clip-path="url(#e15c98a000)"><path stroke-linecap="butt" transform="matrix(2.287049, 0, 0, 2.287049, 14.029633, 0.761173)" fill="none" stroke-linejoin="miter" d="M 0.000707189 6.000396 L 33.405511 6.000396 " stroke="#2b2b2b" stroke-width="12" stroke-opacity="1" stroke-miterlimit="4"/></g></g></g></g><path stroke-linecap="butt" transform="matrix(0, 2.287049, -2.287049, 0, 41.457717, 14.823236)" fill="none" stroke-linejoin="miter" d="M 0.000429506 6.000457 L 33.405233 6.000457 " stroke="#2b2b2b" stroke-width="12" stroke-opacity="1" stroke-miterlimit="4"/></g></g><g transform="matrix(1, 0, 0, 1, 65, 47)"><g clip-path="url(#5f8404b2d5)"><g clip-path="url(#0cf95fce7a)"><path stroke-linecap="butt" transform="matrix(0, 1.469586, -1.469586, 0, 42.682717, 14.855462)" fill="none" stroke-linejoin="miter" d="M 0.00000436303 9.499317 L 51.986381 9.499317 " stroke="#2b2b2b" stroke-width="19" stroke-opacity="1" stroke-miterlimit="4"/></g><path stroke-linecap="butt" transform="matrix(-1.469586, 0, 0, -1.469586, 91.39662, 42.537061)" fill="none" stroke-linejoin="miter" d="M -0.00123652 9.501209 L 51.987798 9.501209 " stroke="#2b2b2b" stroke-width="19" stroke-opacity="1" stroke-miterlimit="4"/></g></g><g transform="matrix(1, 0, 0, 1, 576, 222)"><g clip-path="url(#435b42a79d)"><g clip-path="url(#0b8adc63d2)"><path stroke-linecap="butt" transform="matrix(0, -1.469586, 1.469586, 0, 66.028971, 94.124511)" fill="none" stroke-linejoin="miter" d="M -0.000332583 9.498806 L 53.971616 9.498806 " stroke="#2b2b2b" stroke-width="19" stroke-opacity="1" stroke-miterlimit="4"/></g><path stroke-linecap="butt" transform="matrix(1.469586, 0, 0, 1.469586, 14.922744, 65.919005)" fill="none" stroke-linejoin="miter" d="M -0.00059113 9.499208 L 53.971358 9.499208 " stroke="#2b2b2b" stroke-width="19" stroke-opacity="1" stroke-miterlimit="4"/></g></g><g fill="#2b2b2b" fill-opacity="1"><g transform="translate(158.722776, 239.303312)"><g><path d="M 11.59375 0 L 11.59375 -80.109375 L 28.84375 -80.109375 L 31.890625 -69.421875 C 34.535156 -73.179688 37.789062 -75.898438 41.65625 -77.578125 C 45.519531 -79.265625 50.398438 -80.109375 56.296875 -80.109375 L 65 -80.109375 L 65 -59.046875 L 56.15625 -59.046875 C 49.539062 -59.046875 44.320312 -57.265625 40.5 -53.703125 C 36.6875 -50.148438 34.78125 -44.046875 34.78125 -35.390625 L 34.78125 0 Z M 11.59375 0 "/></g></g></g><g fill="#2b2b2b" fill-opacity="1"><g transform="translate(225.394002, 239.303312)"><g><path d="M 30.96875 0 L 1.375 -80.109375 L 25.9375 -80.109375 L 35.25 -53.5625 L 43.171875 -31.125 L 51.421875 -53.5625 L 61.34375 -80.109375 L 80.109375 -80.109375 L 90.015625 -53.5625 L 98.265625 -30.96875 L 106.1875 -53.5625 L 115.65625 -80.109375 L 140.0625 -80.109375 L 110.46875 0 L 88.953125 0 L 70.796875 -48.828125 L 52.484375 0 Z M 30.96875 0 "/></g></g></g><g fill="#2b2b2b" fill-opacity="1"><g transform="translate(363.313736, 239.303312)"><g><path d="M 3.65625 0 L 32.1875 -40.734375 L 4.875 -80.109375 L 31.125 -80.109375 L 46.6875 -56.453125 L 54.171875 -67.890625 L 62.40625 -80.109375 L 88.640625 -80.109375 L 61.484375 -40.734375 L 89.875 0 L 63.171875 0 L 54.46875 -12.8125 L 46.84375 -24.265625 L 39.0625 -12.8125 L 30.359375 0 Z M 3.65625 0 "/></g></g></g><g fill="#5783fc" fill-opacity="1"><g transform="translate(453.332132, 239.303312)"><g><path d="M 2.28125 23.5 L 2.28125 9 L 67.890625 9 L 67.890625 23.5 Z M 2.28125 23.5 "/></g></g></g><g fill="#2b2b2b" fill-opacity="1"><g transform="translate(520.011815, 239.303312)"><g><path d="M 50.203125 0 C 40.023438 0 32.210938 -2.617188 26.765625 -7.859375 C 21.328125 -13.097656 18.609375 -20.597656 18.609375 -30.359375 L 18.609375 -61.1875 L 3.046875 -61.1875 L 3.046875 -80.109375 L 10.21875 -80.109375 C 14.59375 -80.109375 17.566406 -80.816406 19.140625 -82.234375 C 20.722656 -83.660156 21.816406 -86.410156 22.421875 -90.484375 L 23.796875 -100.859375 L 41.8125 -100.859375 L 41.8125 -80.109375 L 63.78125 -80.109375 L 63.78125 -61.1875 L 41.8125 -61.1875 L 41.8125 -33.875 C 41.8125 -24.71875 46.285156 -20.140625 55.234375 -20.140625 L 64.84375 -20.140625 L 64.84375 0 Z M 50.203125 0 "/></g></g></g></svg>