<svg width="209" height="79" viewBox="0 0 209 79" fill="none" xmlns="http://www.w3.org/2000/svg">
<path d="M147.276 77.1504C146.272 77.1504 145.342 76.9562 144.485 76.5678C143.628 76.1794 142.881 75.6412 142.246 74.956C141.611 74.2707 141.117 73.4773 140.762 72.5756C140.407 71.674 140.229 70.7141 140.229 69.6987C140.229 68.6001 140.426 67.5986 140.817 66.6969C141.211 65.7953 141.741 65.0157 142.415 64.3554C143.087 63.6979 143.85 63.1902 144.699 62.8351C145.547 62.48 146.427 62.3024 147.337 62.3024C148.333 62.3024 149.318 62.5355 150.286 62.9988C151.254 63.4621 152.128 64.2139 152.908 65.2515L150.164 66.7274C149.748 66.2558 149.293 65.909 148.796 65.6871C148.3 65.4651 147.8 65.3542 147.295 65.3542C146.79 65.3542 146.288 65.4596 145.811 65.6704C145.334 65.8813 144.907 66.1837 144.532 66.5721C144.158 66.9605 143.858 67.4266 143.636 67.9648C143.414 68.503 143.303 69.1022 143.303 69.757C143.303 70.359 143.408 70.9222 143.617 71.4465C143.825 71.9736 144.113 72.4314 144.482 72.8253C144.851 73.2193 145.278 73.5244 145.761 73.7464C146.247 73.9683 146.765 74.0793 147.317 74.0793C147.631 74.0793 147.944 74.0377 148.255 73.9517C148.566 73.8657 148.868 73.7381 149.162 73.5688C149.456 73.3996 149.731 73.1804 149.992 72.9141C150.25 72.6478 150.486 72.3343 150.699 71.9708H148.774V69.3075H154.325C154.381 70.3784 154.234 71.3882 153.89 72.3343C153.546 73.2803 153.049 74.1154 152.4 74.8395C151.751 75.5635 150.991 76.1295 150.117 76.5401C149.243 76.9507 148.297 77.1532 147.279 77.1532L147.276 77.1504Z" fill="#F45314"/>
<path d="M162.626 77.1503C161.655 77.1503 160.745 76.9561 159.891 76.5705C159.036 76.1848 158.287 75.6494 157.638 74.9669C156.989 74.2844 156.481 73.4938 156.112 72.5949C155.743 71.696 155.56 70.7361 155.56 69.7124C155.56 68.6887 155.743 67.726 156.112 66.8299C156.481 65.9311 156.989 65.1432 157.638 64.4579C158.287 63.7754 159.036 63.24 159.891 62.8544C160.745 62.4688 161.655 62.2746 162.626 62.2746C163.597 62.2746 164.518 62.4688 165.37 62.8544C166.224 63.24 166.973 63.7754 167.622 64.4579C168.272 65.1404 168.779 65.9311 169.143 66.8299C169.509 67.7288 169.689 68.6887 169.689 69.7124C169.689 70.7361 169.506 71.6988 169.143 72.5949C168.777 73.4938 168.272 74.2817 167.622 74.9669C166.973 75.6522 166.224 76.1848 165.37 76.5705C164.515 76.9561 163.6 77.1503 162.626 77.1503ZM162.626 74.0764C163.172 74.0764 163.686 73.9626 164.168 73.7324C164.651 73.5049 165.076 73.1886 165.445 72.7891C165.814 72.3896 166.102 71.9263 166.31 71.402C166.518 70.8748 166.624 70.3117 166.624 69.7124C166.624 69.1132 166.518 68.5472 166.31 68.0229C166.102 67.4958 165.814 67.0352 165.445 66.6357C165.076 66.2362 164.651 65.9227 164.168 65.6925C163.686 65.465 163.172 65.3485 162.626 65.3485C162.079 65.3485 161.566 65.4622 161.083 65.6925C160.601 65.92 160.176 66.2362 159.807 66.6357C159.438 67.0352 159.15 67.4985 158.942 68.0229C158.734 68.5472 158.628 69.1132 158.628 69.7124C158.628 70.3117 158.734 70.8776 158.942 71.402C159.15 71.9291 159.438 72.3896 159.807 72.7891C160.176 73.1886 160.601 73.5021 161.083 73.7324C161.563 73.9599 162.079 74.0764 162.626 74.0764Z" fill="#F45314"/>
<path d="M171.229 76.8839V62.5464H174.303V73.8128H179.935V76.8867H171.229V76.8839Z" fill="#F45314"/>
<path d="M181.982 76.8839V62.5464H190.502V65.6176H185.053V67.665H189.52V70.7361H185.053V76.8812H181.982V76.8839Z" fill="#F45314"/>
<path d="M134.601 59.8382C131.634 60.2709 128.72 61.3249 125.777 61.9407C122.614 62.6064 119.419 63.1307 116.211 63.5412C109.775 64.3622 103.287 64.7117 96.8016 64.7699C94.2057 64.7921 91.6098 64.7699 89.0167 64.7061C83.0713 64.5647 77.0927 64.218 71.261 62.9753C65.4015 61.7271 60.0407 59.3389 54.8683 56.3516C53.5995 55.6193 52.3556 54.8427 51.1587 53.9995C55.8851 52.3019 61.3761 49.0983 61.3761 42.5383C61.3761 39.8395 60.7389 34.6526 58.0405 31.4572C58.1818 31.3851 64.7089 29.8235 67.9032 28.5448C70.2581 27.5823 72.6323 26.6309 74.8736 25.4243C76.7104 24.4369 79.0819 23.1276 79.7329 20.9919C80.3563 18.9504 79.4919 16.3902 78.6913 14.4846C77.7798 12.3211 76.486 10.385 75.4222 8.30195C72.2306 2.04992 69.6458 0.796188 59.8884 0.25808C47.0253 -0.452 33.9932 0.177641 21.5484 3.73359C17.2625 4.95959 12.5777 6.28266 9.44439 9.6389C7.80707 11.3919 6.69613 13.7024 6.79863 16.1378C6.9981 20.831 11.464 24.4452 16.0768 23.846C16.7722 23.7545 17.4565 23.5742 18.1103 23.3163C21.2907 22.0653 19.4235 21.8046 18.2571 20.4676C16.8719 18.881 17.5036 17.0809 19.5481 15.8993C25.258 12.5957 35.154 11.7026 35.154 11.7026C30.1173 16.0352 23.4849 22.0098 18.5175 26.8389C12.0624 33.0937 0 44.1055 0 48.2966C0 50.7819 1.27717 52.8428 2.62637 54.9731C4.25815 57.5305 5.39402 57.8855 5.46329 57.8855C6.38584 57.8855 8.65759 53.1257 12.4863 48.0109C15.1127 55.6831 24.5488 57.3169 31.9985 57.3169C35.4421 57.3169 38.8276 56.9507 42.177 56.3239C42.4845 56.2656 44.3047 58.0963 44.6039 58.3293C45.6068 59.1226 46.6208 59.902 47.6431 60.6676C49.6433 62.1626 51.6824 63.5994 53.7768 64.9585C57.9518 67.6657 62.3457 70.0567 66.9668 71.9096C78.683 76.6028 91.4186 77.6901 103.91 78.2531C105.454 78.3225 106.997 78.3835 108.54 78.4445C111.95 78.5804 115.361 78.6692 118.774 78.6525C122.024 78.6387 125.55 78.7413 128.728 78.0174C131.681 77.3461 132.601 73.6404 133.54 71.1412C134.46 68.6865 135.216 66.1762 136.119 63.7187C137.355 60.3569 137.909 59.3584 134.599 59.841L134.601 59.8382ZM37.2512 22.2955C42.0773 17.6079 45.4821 14.6954 45.4821 13.9854C45.4821 13.2753 42.3959 11.5916 40.5508 10.7373C47.6237 9.6916 54.7658 9.09247 61.9191 9.33934C64.4734 9.4281 67.0721 9.63335 69.4491 10.5792C70.995 11.195 73.1227 12.751 72.2251 14.6483C71.7984 15.5498 70.887 16.2016 70.078 16.7286C67.2632 18.5648 63.8861 19.6133 60.6918 20.5619C52.6714 22.9418 44.2465 24.5339 35.902 25.1663C35.3119 25.2107 34.7218 25.2496 34.1317 25.2773L37.254 22.2927L37.2512 22.2955ZM27.7431 47.0679C25.9035 47.0706 24.0723 46.9791 22.2659 46.7628C20.6508 46.5686 16.5893 46.2136 17.0797 43.6894C17.1379 43.3871 17.2819 43.0959 17.5091 42.8851C18.1186 42.322 19.2185 42.3386 19.9914 42.3275C20.9888 42.3164 21.9834 42.4274 22.9724 42.5494C24.7122 42.7658 26.441 43.0986 28.142 43.5119C29.6574 43.8808 31.159 44.3163 32.6246 44.8572C33.3781 45.1346 34.1317 45.4314 34.8492 45.7947C35.093 45.9168 35.3313 46.0527 35.5585 46.1997C35.672 46.2746 36.0876 46.4854 36.0738 46.5187C36.0599 46.5547 35.8964 46.5686 35.8632 46.5741C35.7053 46.5936 35.0404 46.6463 34.8658 46.6629C34.4558 46.7045 34.043 46.7406 33.633 46.7766C32.7963 46.8543 31.9569 46.9181 31.1147 46.9652C30.2725 47.0124 29.4303 47.0457 28.5853 47.0595C28.3027 47.0651 28.0201 47.0679 27.7375 47.0679H27.7431ZM46.6152 44.4605C45.4988 44.7768 44.3573 45.0625 43.1993 45.3204C39.4398 40.7576 30.3556 36.7967 22.8256 36.2336C25.3051 33.7289 28.0451 31.202 29.8735 29.4019C29.6602 30.7527 29.591 32.4558 29.591 34.7996C29.591 35.2961 29.8043 35.4375 30.2309 35.4375C30.4442 35.4375 30.6576 35.4375 30.9402 35.3654C31.4361 35.2933 38.1073 33.8038 46.4075 33.8038C51.6574 33.8038 56.2702 34.6553 56.2702 37.6399C56.2702 41.5481 50.239 43.4648 46.6208 44.4605H46.6152Z" fill="#F45314"/>
<path d="M208.041 30.2251C207.93 30.0507 207.808 29.8818 207.677 29.7212C207.325 29.292 206.903 28.9237 206.401 28.6745C205.49 28.2204 204.411 28.2038 203.417 28.4198C201.738 28.7881 200.247 29.6603 198.793 30.5352C198.485 30.7208 198.177 30.9035 197.869 31.0863C197.735 31.1638 197.602 31.2441 197.469 31.3216C196.692 31.784 195.942 32.288 195.185 32.7836C195.332 32.6867 195.473 32.3793 195.59 32.2381C195.792 31.9917 196.009 31.7591 196.217 31.5182C196.747 30.9063 197.275 30.286 197.813 29.6769C198.968 28.3727 200.289 27.1073 201.299 25.6924C201.674 25.1663 202.035 24.5129 201.038 24.4935C198.871 24.4492 196.717 24.6513 194.555 24.6513C194.199 24.6513 193.844 24.7925 193.489 25.147C187.377 31.3881 183.918 35.4362 178.8 40.8245C177.845 41.8075 176.746 42.9344 175.805 44.1582C172.436 46.2432 167.748 48.7712 161.739 50.967C160.887 51.2494 159.321 51.6758 158.042 51.6758C155.838 51.6758 155.269 50.1862 155.269 49.0509C155.269 47.7744 156.052 46.0023 157.401 43.945C158.963 45.5759 161.098 46.426 162.591 46.426C167.923 46.426 179.65 36.7819 179.652 29.9732C179.652 28.8102 179.053 27.8383 178.317 26.9717C177.746 26.2988 177.254 25.6869 176.508 25.183C175.764 24.679 174.937 24.2969 174.068 24.056C172.366 23.5881 170.543 23.6794 168.811 23.912C166.566 24.2138 164.609 25.0916 162.749 26.3431C161.386 27.2596 160.118 28.309 158.894 29.4028C155.175 32.7338 151.552 36.4136 149.571 40.5116C140.925 48.3642 136.409 49.541 134.935 49.541C134.011 49.541 133.728 49.1866 133.728 48.619C133.728 45.6396 144.391 35.1455 153.204 26.7778L160.312 20.1131C160.917 19.5621 161.819 18.8006 162.91 17.8177L170.321 17.898C175.112 17.97 184.06 18.7619 185.947 18.6899C186.608 18.665 186.977 17.9229 186.605 17.3802L183.724 13.7225C183.574 13.5314 183.413 13.3487 183.227 13.1936C183.114 13.0967 182.994 13.0469 182.703 13.0275C178.456 12.7561 173.577 12.5485 168.817 12.4405H168.728C170.573 10.7431 172.419 9.04579 174.259 7.34014C175.622 6.07475 177.088 4.8509 178.356 3.49414C178.509 3.33077 178.625 3.09818 178.556 2.88221C178.459 2.5804 178.081 2.49179 177.768 2.45857C176.08 2.27028 174.382 2.2066 172.683 2.18721C171.315 2.17337 170.257 2.08476 168.894 2.19552C167.859 2.28136 166.876 3.13141 166.169 3.79318C165.53 4.38849 164.897 4.99211 164.265 5.59297C162.605 7.17401 160.951 8.76336 159.296 10.3499C158.969 10.6628 157.559 12.1885 157.381 12.1802C154.841 12.0777 151.658 11.9282 148.169 11.7759C149.99 10.1035 151.811 8.42832 153.626 6.74483C155 5.46837 156.476 4.2362 157.759 2.8656C157.914 2.69946 158.031 2.4641 157.961 2.24813C157.864 1.94355 157.484 1.85495 157.167 1.81895C155.466 1.6279 153.751 1.56421 152.038 1.54483C150.656 1.53098 149.593 1.44238 148.219 1.55314C147.175 1.63897 146.184 2.49733 145.471 3.16464C144.827 3.76549 144.189 4.37188 143.55 4.98104C141.877 6.57593 140.209 8.17912 138.538 9.77678C138.296 10.0066 137.472 10.8926 136.975 11.3467C132.281 11.2083 127.577 11.1086 122.881 11.2471C121.115 11.2997 119.347 11.38 117.593 11.5849C116.527 11.7095 115.259 11.8092 114.285 12.3076C112.897 13.0192 111.875 14.9352 111.315 16.3335C110.649 17.9866 110.385 19.8057 110.607 21.5751C110.632 21.7717 110.674 21.9876 110.832 22.1039C111.007 22.2341 111.251 22.1898 111.465 22.1399C113.552 21.6526 115.609 21.1847 117.732 20.8884C121.046 20.426 124.39 20.4315 127.696 19.9913C127.058 20.5893 126.417 21.193 125.77 21.7994L120.438 26.692C117.338 29.5966 114.248 32.515 111.273 35.547C108.486 38.3879 106.069 41.5389 102.899 43.9893C100.77 45.6368 98.5942 47.2013 96.321 48.6439C95.1136 49.4081 93.8896 50.1557 92.5823 50.7372C92.1632 50.9227 91.7302 51.0944 91.2722 51.147C91.1584 51.1608 91.0391 51.1636 90.9364 51.1193C90.706 51.0168 90.6421 50.7206 90.6477 50.4686C90.6782 48.9872 91.8245 47.6166 92.7044 46.4897C93.451 45.5316 94.2532 44.6151 95.0664 43.7152C97.323 41.2177 99.7017 38.8253 102.075 36.4358C105.25 33.2432 108.445 30.0701 111.612 26.8692C111.95 26.5259 112.289 26.1853 112.628 25.842C113.055 25.4155 113.055 25.2743 113.055 24.9919C113.055 24.4547 111.098 24.5129 110.804 24.5046C109.283 24.4603 107.762 24.5323 106.244 24.5683L103.607 24.6292C103.263 24.6375 102.91 24.6458 102.594 24.7787C102.272 24.9116 102.019 25.1608 101.794 25.4155C101.55 25.6952 101.275 25.9472 101.012 26.213C100.415 26.8138 99.821 27.4147 99.227 28.0155C98.0391 29.22 96.8539 30.4273 95.666 31.629C94.9526 32.3516 94.2393 33.0716 93.5232 33.7915C90.5977 36.7237 87.6084 39.5951 84.5248 42.364C82.2071 44.4434 79.8368 46.833 76.9863 48.1732C76.6532 48.331 76.2702 48.4722 75.9204 48.3504C75.5596 48.223 75.3459 47.8354 75.3043 47.456C75.2543 46.9742 75.4347 46.498 75.6457 46.0605C76.7698 43.754 78.7488 41.8102 80.5224 39.9911C81.5799 38.9084 82.6623 37.8535 83.7615 36.8151C84.905 35.7325 86.0652 34.6692 87.2365 33.617C88.3606 32.6036 89.4958 31.604 90.6366 30.6072C91.6386 29.735 92.6461 28.8656 93.6564 28.0017C94.4308 27.3372 95.2163 26.6837 95.9851 26.0136C96.1656 25.8558 96.3571 25.7118 96.5264 25.5457C96.6263 25.4488 96.7123 25.3352 96.7706 25.2051C96.8178 25.0944 96.8678 24.9282 96.7956 24.8175C96.754 24.7538 96.679 24.7206 96.6069 24.6984C96.3043 24.5987 95.9796 24.5904 95.666 24.5627C94.7944 24.4824 93.9146 24.4713 93.0402 24.4658C92.0438 24.4603 91.0529 24.4797 90.0593 24.5073C88.8463 24.5406 87.6168 24.4547 86.4233 24.715C85.0993 25.003 83.9696 26.033 82.926 26.8111C81.7214 27.7082 80.6611 28.6995 79.4787 29.6215C77.0223 31.5376 74.6797 33.5866 72.5287 35.8405C71.1686 37.272 69.8613 38.7617 68.7095 40.3676C67.5604 41.9681 66.3946 43.826 66.006 45.7836C65.8506 46.5672 65.9172 47.3868 66.1143 48.1565C66.3891 49.2337 66.8998 50.2305 67.4049 51.2217C68.1044 52.6006 68.8621 54.0598 70.2027 54.8324C71.3102 55.472 72.6785 55.5412 73.9303 55.2754C75.9066 54.8573 77.7662 53.7913 79.3538 52.573C80.0089 52.0829 80.6639 51.5928 81.319 51.1027C82.1405 50.488 83.1314 49.912 83.8475 49.1866C83.8891 49.206 83.903 49.242 83.9058 49.289C84.0335 51.4405 85.3102 53.3981 86.9506 54.8019C87.7833 55.5135 88.7603 56.1282 89.8539 56.2417C90.6394 56.3248 91.4332 56.1393 92.1743 55.8707C94.1893 55.1425 96.1017 53.8854 97.9058 52.7474C99.7488 51.5844 101.35 50.0948 103.149 48.8986C103.612 50.524 104.542 52.2711 105.594 53.603C106.641 54.9321 108.12 56.0064 109.799 56.2002C112.322 56.4909 115.131 55.0262 117.282 53.819C119.902 52.3487 122.309 50.5101 124.563 48.5359C124.99 51.23 128.26 56.2667 131.316 56.2667C134.016 56.2667 137.641 54.6358 140.2 52.7917C143.584 50.416 146.129 48.4667 148.025 46.8745C148.05 48.0319 148.824 49.1921 149.454 50.1142C150.387 51.482 151.494 52.7363 152.696 53.8743C153.579 54.7105 154.528 55.5052 155.574 56.1365C157.412 57.2441 159.574 57.006 161.578 56.5463C163.757 56.0479 165.836 55.1729 167.795 54.1097C169.877 52.98 171.836 51.6287 173.696 50.164C174.146 52.6477 176.411 54.9957 177.24 54.9957C178.217 54.9957 178.798 54.046 179.35 53.3621C181.09 51.2023 182.925 49.1478 184.812 47.1127C187.252 44.485 189.625 41.7742 192.229 39.3099C193.369 38.23 194.496 37.128 195.72 36.1423C196.761 35.3005 198.024 34.3729 199.409 34.2954C200.172 34.2539 200.977 34.5114 201.48 35.0846C202.393 36.1257 201.763 37.1668 201.097 38.086C200.458 38.9693 201.471 39.0884 202.246 39.2047C207.283 39.9689 210.758 34.4145 208.052 30.203L208.041 30.2251ZM172.253 29.699C172.608 29.4858 173.249 29.2034 173.746 29.2034C174.243 29.2034 174.598 29.4166 174.598 29.9842C174.598 32.1827 165.214 42.1813 161.164 42.1813C160.809 42.1813 160.026 42.1093 159.457 41.2592C162.727 37.2886 167.49 32.9636 172.253 29.699ZM128.604 40.0547C120.358 48.3504 114.956 49.5576 113.463 49.5576C112.539 49.5576 112.256 49.2032 112.256 48.6356C112.256 45.6562 122.919 35.1621 131.804 26.7225L137.988 20.9078C138.824 20.1519 139.642 19.36 140.494 18.6234C140.875 18.2939 141.355 18.2912 141.816 18.2773C142.246 18.2662 150.398 17.9146 151.294 18.0226C151.294 18.0226 150.803 18.4324 150.625 18.593C150.009 19.1467 149.393 19.7033 148.791 20.2709L141.824 26.7945C135.64 32.6092 131.588 37.0782 128.601 40.0547H128.604Z" fill="#F45314"/>
</svg>
