<?xml version="1.0" encoding="UTF-8"?>
<svg id="Layer_1" data-name="Layer 1" xmlns="http://www.w3.org/2000/svg" viewBox="0 0 1325.39 599.92">
  <defs>
    <style>
      .cls-1 {
        fill: #066276;
      }
    </style>
  </defs>
  <g>
    <path class="cls-1" d="M541.8,320.06v-87.33h16.97l37.05,55.02v-55.02h18.46v87.33h-17.09l-37.05-55.02v55.02h-18.34Z"/>
    <path class="cls-1" d="M659.64,320.81c-7.07,0-13.16-1.35-18.28-4.06-5.12-2.7-9.05-6.49-11.79-11.35s-4.12-10.62-4.12-17.28,1.35-12.45,4.05-17.4c2.7-4.95,6.55-8.77,11.54-11.48,4.99-2.7,10.77-4.05,17.34-4.05s12.02,1.27,16.84,3.8c4.82,2.54,8.61,6.09,11.35,10.67,2.74,4.58,4.16,10.02,4.24,16.34,0,.92-.04,1.89-.12,2.93-.08,1.04-.21,2.06-.38,3.06h-46.53v.87c.17,3.08.89,5.72,2.18,7.92,1.29,2.2,3.04,3.87,5.24,4.99,2.2,1.12,4.76,1.68,7.67,1.68,3.58,0,6.55-.79,8.92-2.37,2.37-1.58,3.93-3.82,4.68-6.74h17.34c-.67,4.08-2.29,7.82-4.87,11.23-2.58,3.41-6.03,6.13-10.35,8.17-4.33,2.04-9.32,3.06-14.97,3.06ZM644.17,280.51h28.94c-.58-3.99-2.16-7.03-4.74-9.11-2.58-2.08-5.86-3.12-9.86-3.12-2.5,0-4.76.5-6.8,1.5-2.04,1-3.72,2.39-5.05,4.18-1.33,1.79-2.16,3.97-2.5,6.55Z"/>
    <path class="cls-1" d="M731.67,320.81c-7.07,0-13.16-1.35-18.28-4.06-5.12-2.7-9.04-6.49-11.79-11.35-2.74-4.87-4.12-10.62-4.12-17.28s1.35-12.45,4.05-17.4c2.7-4.95,6.55-8.77,11.54-11.48,4.99-2.7,10.77-4.05,17.34-4.05s12.02,1.27,16.84,3.8c4.82,2.54,8.61,6.09,11.35,10.67,2.74,4.58,4.16,10.02,4.24,16.34,0,.92-.04,1.89-.12,2.93-.08,1.04-.21,2.06-.38,3.06h-46.54v.87c.17,3.08.89,5.72,2.18,7.92,1.29,2.2,3.04,3.87,5.24,4.99,2.2,1.12,4.76,1.68,7.67,1.68,3.58,0,6.55-.79,8.92-2.37,2.37-1.58,3.93-3.82,4.68-6.74h17.34c-.67,4.08-2.29,7.82-4.87,11.23-2.58,3.41-6.03,6.13-10.36,8.17-4.33,2.04-9.32,3.06-14.97,3.06ZM716.2,280.51h28.94c-.58-3.99-2.16-7.03-4.74-9.11-2.58-2.08-5.86-3.12-9.86-3.12-2.5,0-4.76.5-6.8,1.5-2.04,1-3.72,2.39-5.05,4.18-1.33,1.79-2.16,3.97-2.5,6.55Z"/>
    <path class="cls-1" d="M818.55,232.73h17.59v87.33h-15.35l-3.37-17.09,4.37,3.87c-2,3.66-4.8,6.9-8.42,9.73-3.62,2.83-8.3,4.24-14.04,4.24s-10.85-1.33-15.35-3.99c-4.49-2.66-8.03-6.47-10.6-11.42-2.58-4.95-3.87-10.79-3.87-17.53s1.29-12.43,3.87-17.34c2.58-4.91,6.11-8.69,10.6-11.35,4.49-2.66,9.56-3.99,15.22-3.99s10.19,1.23,13.85,3.68c3.66,2.45,6.45,5.59,8.36,9.42l-2.87,3.99v-39.55ZM803.21,269.53c-3.24,0-6.03.77-8.36,2.31-2.33,1.54-4.14,3.7-5.43,6.49-1.29,2.79-1.93,6.01-1.93,9.67s.64,6.78,1.93,9.61c1.29,2.83,3.1,5.01,5.43,6.55,2.33,1.54,5.11,2.31,8.36,2.31s6.03-.77,8.36-2.31c2.33-1.54,4.12-3.7,5.37-6.49,1.25-2.79,1.87-5.97,1.87-9.54s-.62-7.01-1.87-9.79c-1.25-2.79-3.04-4.95-5.37-6.49-2.33-1.54-5.11-2.31-8.36-2.31Z"/>
    <path class="cls-1" d="M870.14,275.89c.42-4.16,1.89-7.8,4.43-10.92,2.54-3.12,5.97-5.53,10.29-7.24,4.32-1.7,9.31-2.56,14.97-2.56,8.98,0,15.95,1.98,20.9,5.93,4.95,3.95,7.42,9.75,7.42,17.4v22.71c0,1.66.33,2.74,1,3.24.66.5,1.7.75,3.12.75h2v14.85h-8.98c-4.58,0-7.71-.98-9.42-2.93-1.71-1.95-2.52-4.47-2.43-7.55v-7.86l2.74,2.62c-2.25,5.16-5.24,9.19-8.98,12.1-3.74,2.91-8.65,4.37-14.72,4.37-4.58,0-8.67-.73-12.29-2.18-3.62-1.45-6.45-3.58-8.48-6.36-2.04-2.79-3.06-6.22-3.06-10.29,0-6.82,2.5-12.08,7.49-15.78,4.99-3.7,12.31-5.55,21.96-5.55h12.73v-3.12c0-2.91-1-5.22-2.99-6.92-2-1.7-4.82-2.56-8.48-2.56-3.41,0-6.22.71-8.42,2.12-2.21,1.42-3.47,3.33-3.81,5.74h-16.97ZM910.81,292.36h-12.85c-3.74,0-6.61.73-8.61,2.18-2,1.46-2.99,3.51-2.99,6.18,0,2.16.85,3.93,2.56,5.3,1.7,1.37,4.01,2.06,6.92,2.06,3.08,0,5.72-.6,7.92-1.81,2.2-1.2,3.93-2.89,5.18-5.05,1.25-2.16,1.87-4.7,1.87-7.61v-1.25Z"/>
    <path class="cls-1" d="M536.81,342.99h69.24v16.09h-25.33v71.24h-18.71v-71.24h-25.2v-16.09Z"/>
    <path class="cls-1" d="M604.01,366.19h15.97l2.99,17.84-3.74-3.37c1.16-2.83,2.56-5.32,4.18-7.49,1.62-2.16,3.76-3.87,6.42-5.11,2.66-1.25,6.07-1.87,10.23-1.87h2.99v15.97h-6.99c-3.41,0-6.2.71-8.36,2.12-2.16,1.42-3.72,3.39-4.68,5.93-.96,2.54-1.43,5.43-1.43,8.67v31.44h-17.59v-64.13Z"/>
    <path class="cls-1" d="M649.14,386.15c.42-4.16,1.89-7.8,4.43-10.92,2.54-3.12,5.97-5.53,10.29-7.24,4.32-1.7,9.31-2.56,14.97-2.56,8.98,0,15.95,1.98,20.9,5.93,4.95,3.95,7.42,9.75,7.42,17.4v22.71c0,1.67.33,2.75,1,3.24.67.5,1.7.75,3.12.75h2v14.85h-8.98c-4.58,0-7.72-.98-9.42-2.93-1.71-1.95-2.52-4.47-2.43-7.55v-7.86l2.74,2.62c-2.25,5.16-5.24,9.19-8.98,12.1-3.74,2.91-8.65,4.37-14.72,4.37-4.58,0-8.67-.73-12.29-2.18-3.62-1.45-6.45-3.58-8.48-6.36-2.04-2.79-3.06-6.22-3.06-10.29,0-6.82,2.5-12.08,7.49-15.78,4.99-3.7,12.31-5.55,21.96-5.55h12.73v-3.12c0-2.91-1-5.22-2.99-6.92-2-1.7-4.83-2.56-8.48-2.56-3.41,0-6.22.71-8.42,2.12-2.2,1.42-3.47,3.33-3.8,5.74h-16.97ZM689.81,402.62h-12.85c-3.74,0-6.61.73-8.61,2.18-2,1.46-2.99,3.51-2.99,6.17,0,2.16.85,3.93,2.56,5.3,1.7,1.37,4.01,2.06,6.92,2.06,3.08,0,5.72-.6,7.92-1.81,2.2-1.2,3.93-2.89,5.18-5.05,1.25-2.16,1.87-4.7,1.87-7.61v-1.25Z"/>
    <path class="cls-1" d="M766.28,342.99h17.59v87.33h-15.35l-3.37-17.09,4.37,3.87c-2,3.66-4.8,6.91-8.42,9.73-3.62,2.83-8.3,4.24-14.04,4.24s-10.86-1.33-15.35-3.99c-4.49-2.66-8.03-6.47-10.61-11.42-2.58-4.95-3.87-10.79-3.87-17.53s1.29-12.43,3.87-17.34c2.58-4.91,6.11-8.69,10.61-11.35,4.49-2.66,9.56-3.99,15.22-3.99s10.19,1.23,13.85,3.68c3.66,2.46,6.45,5.59,8.36,9.42l-2.87,3.99v-39.55ZM750.93,379.79c-3.24,0-6.03.77-8.36,2.31-2.33,1.54-4.14,3.7-5.43,6.49-1.29,2.79-1.93,6.01-1.93,9.67s.64,6.78,1.93,9.61c1.29,2.83,3.1,5.01,5.43,6.55,2.33,1.54,5.12,2.31,8.36,2.31s6.03-.77,8.36-2.31c2.33-1.54,4.12-3.7,5.37-6.49,1.25-2.79,1.87-5.97,1.87-9.54s-.62-7.01-1.87-9.79c-1.25-2.79-3.04-4.95-5.37-6.49-2.33-1.54-5.11-2.31-8.36-2.31Z"/>
    <path class="cls-1" d="M827.69,431.07c-7.07,0-13.16-1.35-18.28-4.05-5.12-2.7-9.04-6.49-11.79-11.35-2.75-4.87-4.12-10.62-4.12-17.28s1.35-12.45,4.05-17.4c2.7-4.95,6.55-8.77,11.54-11.48,4.99-2.7,10.77-4.05,17.34-4.05s12.02,1.27,16.84,3.8c4.82,2.54,8.61,6.09,11.35,10.67,2.74,4.58,4.16,10.02,4.24,16.34,0,.92-.04,1.89-.12,2.93-.08,1.04-.21,2.06-.37,3.06h-46.54v.87c.17,3.08.89,5.72,2.18,7.92,1.29,2.21,3.04,3.87,5.24,4.99,2.2,1.12,4.76,1.68,7.67,1.68,3.58,0,6.55-.79,8.92-2.37,2.37-1.58,3.93-3.83,4.68-6.74h17.34c-.67,4.08-2.29,7.82-4.87,11.23-2.58,3.41-6.03,6.13-10.36,8.17-4.33,2.04-9.32,3.06-14.97,3.06ZM812.22,390.77h28.94c-.58-3.99-2.16-7.03-4.74-9.11-2.58-2.08-5.86-3.12-9.86-3.12-2.5,0-4.76.5-6.8,1.5-2.04,1-3.72,2.39-5.05,4.18-1.33,1.79-2.16,3.97-2.5,6.55Z"/>
    <path class="cls-1" d="M895.69,431.07c-8.9,0-16.16-1.98-21.77-5.93-5.61-3.95-8.59-9.33-8.92-16.16h16.72c.33,2.83,1.68,5.12,4.05,6.86,2.37,1.75,5.72,2.62,10.04,2.62,2.5,0,4.63-.25,6.42-.75,1.79-.5,3.14-1.29,4.05-2.37.91-1.08,1.37-2.33,1.37-3.74,0-1.75-.5-3.04-1.5-3.87-1-.83-2.6-1.45-4.8-1.87-2.21-.42-5.01-.83-8.42-1.25-3.74-.42-7.24-1-10.48-1.75-3.24-.75-6.07-1.79-8.48-3.12-2.41-1.33-4.29-3.08-5.61-5.24-1.33-2.16-2-4.91-2-8.23,0-4.32,1.14-8.05,3.43-11.17,2.29-3.12,5.51-5.55,9.67-7.3,4.16-1.75,8.98-2.58,14.47-2.5,8.65,0,15.7,1.81,21.15,5.43,5.45,3.62,8.38,8.71,8.8,15.28h-16.84c-.25-2.58-1.5-4.59-3.74-6.05-2.25-1.45-5.16-2.18-8.73-2.18s-6.16.58-8.23,1.75c-2.08,1.17-3.12,2.79-3.12,4.87,0,1.67.58,2.89,1.75,3.68,1.16.79,2.85,1.35,5.05,1.68,2.2.33,4.84.71,7.92,1.12,4.91.5,9.4,1.33,13.47,2.5,4.07,1.17,7.34,3.06,9.79,5.68,2.45,2.62,3.68,6.34,3.68,11.17,0,4.24-1.25,7.92-3.74,11.04s-5.93,5.53-10.29,7.24c-4.37,1.71-9.42,2.56-15.16,2.56Z"/>
    <path class="cls-1" d="M934.51,430.32v-64.13h15.34l3.24,16.22-4.49-3.99c1.41-2.33,3.04-4.47,4.87-6.42,1.83-1.95,4.12-3.53,6.86-4.74,2.74-1.2,6.07-1.81,9.98-1.81,3.24-.08,6.34.44,9.29,1.56,2.95,1.12,5.53,2.99,7.74,5.61,2.2,2.62,3.72,6.17,4.55,10.67l-4.87-2c1.91-4.99,4.95-8.88,9.11-11.67,4.16-2.79,9.19-4.18,15.1-4.18,4.41,0,8.42.92,12.04,2.74,3.62,1.83,6.47,4.78,8.55,8.86,2.08,4.08,3.12,9.57,3.12,16.47v36.8h-17.59v-35.81c0-4.82-.89-8.46-2.68-10.92-1.79-2.45-4.6-3.68-8.42-3.68s-6.91,1.33-9.23,3.99c-2.33,2.66-3.49,6.45-3.49,11.35v35.06h-17.59v-35.81c0-4.82-.9-8.46-2.68-10.92-1.79-2.45-4.64-3.68-8.55-3.68-2.5,0-4.7.6-6.61,1.81-1.91,1.21-3.39,2.98-4.43,5.3-1.04,2.33-1.56,5.12-1.56,8.36v34.93h-17.59Z"/>
    <path class="cls-1" d="M1045.42,386.15c.42-4.16,1.89-7.8,4.43-10.92,2.54-3.12,5.97-5.53,10.29-7.24,4.32-1.7,9.31-2.56,14.97-2.56,8.98,0,15.95,1.98,20.9,5.93,4.95,3.95,7.42,9.75,7.42,17.4v22.71c0,1.67.33,2.75,1,3.24.66.5,1.7.75,3.12.75h2v14.85h-8.98c-4.58,0-7.71-.98-9.42-2.93-1.71-1.95-2.52-4.47-2.43-7.55v-7.86l2.74,2.62c-2.25,5.16-5.24,9.19-8.98,12.1-3.74,2.91-8.65,4.37-14.72,4.37-4.58,0-8.67-.73-12.29-2.18s-6.45-3.58-8.48-6.36c-2.04-2.79-3.06-6.22-3.06-10.29,0-6.82,2.5-12.08,7.49-15.78,4.99-3.7,12.31-5.55,21.96-5.55h12.73v-3.12c0-2.91-1-5.22-2.99-6.92-2-1.7-4.82-2.56-8.48-2.56-3.41,0-6.22.71-8.42,2.12-2.21,1.42-3.47,3.33-3.81,5.74h-16.97ZM1086.09,402.62h-12.85c-3.74,0-6.61.73-8.61,2.18-2,1.46-2.99,3.51-2.99,6.17,0,2.16.85,3.93,2.56,5.3,1.7,1.37,4.01,2.06,6.92,2.06,3.08,0,5.72-.6,7.92-1.81,2.2-1.2,3.93-2.89,5.18-5.05,1.25-2.16,1.87-4.7,1.87-7.61v-1.25Z"/>
    <path class="cls-1" d="M1117.68,366.19h15.34l3.24,16.22-4.62-3.99c2.25-3.58,5.07-6.63,8.48-9.17,3.41-2.54,8.19-3.8,14.35-3.8,4.66,0,8.92.92,12.79,2.74,3.87,1.83,6.99,4.87,9.36,9.11,2.37,4.24,3.56,10.06,3.56,17.47v35.56h-17.59v-33.81c0-5.41-1.06-9.52-3.18-12.35-2.12-2.83-5.39-4.24-9.79-4.24-2.99,0-5.57.69-7.73,2.06-2.16,1.37-3.81,3.39-4.93,6.05-1.12,2.66-1.68,5.82-1.68,9.48v32.81h-17.59v-64.13Z"/>
  </g>
  <g>
    <polygon class="cls-1" points="493.37 246.59 339.87 171.79 186.37 246.59 167.57 208.01 339.87 124.05 512.17 208.01 493.37 246.59"/>
    <path class="cls-1" d="M392.1,430.17l-91.67-114.69v114.69h-56.53v-196.13h58.33l91.68,118.23v-123.86l56.53,25.5v176.27h-58.34ZM393.91,159.91v-42.59h56.53v61.16l-56.53-18.57Z"/>
  </g>
</svg>