<svg width="934" height="166" viewBox="0 0 934 166" fill="none" xmlns="http://www.w3.org/2000/svg">
<g clip-path="url(#clip0)">
<path fill-rule="evenodd" clip-rule="evenodd" d="M141.69 141.69C109.276 174.103 56.7236 174.103 24.3101 141.69C-8.10338 109.276 -8.10338 56.7236 24.3101 24.3101C56.7237 -8.10338 109.276 -8.10338 141.69 24.3101C174.103 56.7237 174.103 109.276 141.69 141.69ZM21.7756 94.2852L30.135 95.5394C31.0332 94.2559 32.0546 93.0337 33.1993 91.8889C34.3441 90.7441 35.5664 89.7227 36.8499 88.8245L35.9861 81.8452C35.9021 81.1667 36.3314 80.5374 36.9952 80.366L51.5172 76.6172C52.181 76.4458 52.879 76.7841 53.1579 77.4124L56.1404 84.1305C59.1555 84.513 62.1296 85.3838 64.9343 86.7416L70.9112 82.3526C71.4618 81.9483 72.2251 82.0064 72.7081 82.4895L83.5159 93.2973C83.999 93.7803 84.0571 94.5436 83.6528 95.0942L78.9381 101.515C80.0119 104.078 80.6937 106.76 80.9824 109.469L88.5926 112.847C89.2208 113.126 89.5591 113.824 89.3877 114.488L85.6389 129.01C85.4675 129.674 84.8382 130.103 84.1597 130.019L75.6638 128.967C74.9073 129.971 74.0722 130.934 73.1585 131.848C72.2449 132.762 71.2819 133.597 70.2778 134.353L71.3776 144.162C90.9208 147.857 111.892 142.142 127.017 127.017C142.142 111.893 147.857 90.921 144.162 71.378L134.353 70.2774C133.596 71.2816 132.761 72.2446 131.848 73.1582C130.934 74.0719 129.971 74.907 128.967 75.6635L130.018 84.1593C130.102 84.8379 129.673 85.4672 129.009 85.6386L114.487 89.3874C113.823 89.5588 113.125 89.2205 112.847 88.5922L109.468 80.9822C106.759 80.6934 104.077 80.0116 101.514 78.9378L95.0936 83.6525C94.5431 84.0568 93.7797 83.9987 93.2967 83.5157L82.4889 72.7079C82.0059 72.2248 81.9478 71.4615 82.3521 70.9109L86.741 64.934C85.3833 62.1293 84.5125 59.1552 84.13 56.14L77.4118 53.1576C76.7836 52.8787 76.4453 52.1806 76.6167 51.5169L80.3655 36.9949C80.5369 36.3311 81.1662 35.9018 81.8447 35.9858L88.824 36.8496C89.7222 35.566 90.7435 34.3438 91.8883 33.199C93.0331 32.0542 94.2554 31.0328 95.5389 30.1347L94.4689 21.8096C74.9695 18.1729 54.068 23.8973 38.9826 38.9826C23.9446 54.0206 18.209 74.8383 21.7756 94.2852Z" fill="rgb(51, 68, 227)"/>
<path d="M231.659 126.474C224.516 126.474 217.583 125.32 210.86 123.012C204.242 120.598 198.622 117.188 194 112.781L202.666 96.8835C212.856 104.334 222.257 108.059 230.871 108.059C234.127 108.059 236.649 107.534 238.434 106.485C240.22 105.435 241.113 103.809 241.113 101.605C241.113 99.2969 239.905 97.6705 237.489 96.7261C235.073 95.6768 231.501 94.4701 226.774 93.106C220.471 91.0073 215.219 88.9612 211.017 86.9675C206.816 84.9738 203.664 82.5603 201.563 79.7272C199.462 76.894 198.412 73.1165 198.412 68.3945C198.412 60.1049 201.511 53.4418 207.708 48.405C213.906 43.2634 222.31 40.6925 232.919 40.6925C238.592 40.6925 244.107 41.5845 249.464 43.3683C254.926 45.1521 260.021 48.1427 264.748 52.34L254.979 68.0797C250.252 64.8269 246.05 62.4659 242.373 60.9968C238.697 59.5278 235.125 58.7933 231.659 58.7933C228.928 58.7933 226.617 59.3179 224.726 60.3673C222.835 61.3116 221.89 62.9906 221.89 65.404C221.89 67.7125 222.94 69.4439 225.041 70.5981C227.142 71.6474 230.398 72.8017 234.81 74.0609C241.533 76.0546 247.153 78.1007 251.67 80.1994C256.292 82.1931 259.706 84.7114 261.912 87.7545C264.223 90.6926 265.378 94.6275 265.378 99.5593C265.378 107.954 262.332 114.565 256.24 119.391C250.147 124.113 241.953 126.474 231.659 126.474Z" fill="rgb(51, 68, 227)"/>
<path d="M329.047 126.474C322.849 126.474 317.387 125.163 312.66 122.539C308.038 119.811 304.466 116.138 301.945 111.521V158.426H276.734V42.2665H298.636V55.6453C301.683 50.9234 305.517 47.2508 310.139 44.6275C314.761 42.0042 320.171 40.6925 326.368 40.6925C333.722 40.6925 340.287 42.6338 346.065 46.5163C351.947 50.2938 356.517 55.383 359.773 61.7838C363.134 68.1847 364.815 75.3725 364.815 83.3473C364.815 91.532 363.292 98.8772 360.246 105.383C357.199 111.889 352.945 117.03 347.483 120.808C342.125 124.586 335.98 126.474 329.047 126.474ZM320.538 105.226C324.11 105.226 327.314 104.229 330.15 102.235C332.986 100.136 335.192 97.4606 336.768 94.2078C338.344 90.8499 339.132 87.1773 339.132 83.1899C339.132 77.1039 337.241 72.0672 333.459 68.0797C329.782 64.0923 325.055 62.0986 319.278 62.0986C315.811 62.0986 312.45 63.148 309.194 65.2466C306.042 67.2403 303.626 69.9685 301.945 73.4313V90.4302C303.626 94.6275 306.147 98.1427 309.509 100.976C312.975 103.809 316.652 105.226 320.538 105.226Z" fill="rgb(51, 68, 227)"/>
<path d="M415.497 126.474C406.148 126.474 398.164 124.533 391.546 120.651C384.929 116.768 379.834 111.626 376.262 105.226C372.796 98.8248 371.063 91.8993 371.063 84.4491C371.063 76.4743 372.796 69.1815 376.262 62.5708C379.729 55.9601 384.771 50.6611 391.389 46.6737C398.007 42.6862 406.043 40.6925 415.497 40.6925C424.846 40.6925 432.829 42.6862 439.447 46.6737C446.065 50.6611 451.055 55.9077 454.416 62.4134C457.883 68.9192 459.616 75.8972 459.616 83.3473C459.616 86.3903 459.406 89.0661 458.986 91.3746H397.849C398.269 96.936 400.265 101.186 403.837 104.124C407.513 106.957 411.663 108.374 416.285 108.374C419.961 108.374 423.48 107.482 426.842 105.698C430.203 103.914 432.514 101.501 433.775 98.4575L455.204 104.439C451.948 110.944 446.853 116.243 439.92 120.336C433.092 124.428 424.951 126.474 415.497 126.474ZM397.219 75.9496H433.144C432.619 70.703 430.676 66.5582 427.314 63.5152C424.058 60.3673 420.014 58.7933 415.182 58.7933C410.35 58.7933 406.253 60.3673 402.891 63.5152C399.635 66.6632 397.744 70.808 397.219 75.9496Z" fill="rgb(51, 68, 227)"/>
<path d="M509.016 126.474C499.772 126.474 491.789 124.481 485.066 120.493C478.448 116.506 473.353 111.259 469.782 104.753C466.315 98.2476 464.582 91.1647 464.582 83.5047C464.582 75.9496 466.315 68.9192 469.782 62.4134C473.353 55.9077 478.448 50.6611 485.066 46.6737C491.684 42.6862 499.667 40.6925 509.016 40.6925C518.47 40.6925 526.454 42.7387 532.966 46.8311C539.584 50.8185 544.521 56.0651 547.778 62.5708L523.197 69.9685C519.941 64.7219 515.161 62.0986 508.858 62.0986C503.711 62.0986 499.352 64.0399 495.78 67.9223C492.209 71.8048 490.423 76.999 490.423 83.5047C490.423 90.0105 492.209 95.2571 495.78 99.2445C499.352 103.232 503.711 105.226 508.858 105.226C512.01 105.226 514.899 104.491 517.525 103.022C520.151 101.448 522.094 99.4544 523.355 97.0409L547.935 104.596C544.889 110.997 540.004 116.243 533.282 120.336C526.664 124.428 518.575 126.474 509.016 126.474Z" fill="rgb(51, 68, 227)"/>
<path d="M611.327 120.493C607.861 121.962 603.869 123.326 599.352 124.586C594.94 125.845 590.476 126.474 585.959 126.474C581.757 126.474 577.923 125.792 574.456 124.428C570.99 122.959 568.206 120.598 566.105 117.345C564.004 114.092 562.954 109.79 562.954 104.439V61.3116H552.397V42.2665H562.954V15.9811H588.165V42.2665H605.024V61.3116H588.165V95.7817C588.165 98.51 588.847 100.504 590.213 101.763C591.579 102.917 593.312 103.494 595.413 103.494C597.304 103.494 599.247 103.179 601.243 102.55C603.239 101.92 604.972 101.238 606.443 100.504L611.327 120.493Z" fill="rgb(51, 68, 227)"/>
<path d="M619.575 32.8227V10H644.786V32.8227H619.575ZM619.575 124.9V42.2665H644.786V124.9H619.575Z" fill="rgb(51, 68, 227)"/>
<path d="M740.198 124.9H714.987V78.468C714.987 73.0115 713.937 69.0766 711.836 66.6632C709.84 64.1448 707.162 62.8856 703.8 62.8856C700.334 62.8856 696.815 64.2497 693.243 66.978C689.671 69.7062 687.15 73.2214 685.68 77.5236V124.9H660.469V42.2665H683.159V56.1175C686.205 51.2907 690.512 47.5131 696.079 44.7849C701.647 42.0567 708.054 40.6925 715.303 40.6925C720.66 40.6925 724.967 41.6894 728.223 43.6831C731.585 45.5719 734.106 48.0902 735.786 51.2382C737.572 54.2812 738.728 57.639 739.253 61.3116C739.883 64.9843 740.198 68.5519 740.198 72.0147V124.9Z" fill="rgb(51, 68, 227)"/>
<path d="M787.517 125.215C780.164 125.215 773.756 123.326 768.294 119.549C762.831 115.771 758.524 110.735 755.373 104.439C752.327 98.1427 750.803 91.1647 750.803 83.5047C750.803 75.425 752.432 68.1847 755.688 61.7838C758.944 55.2781 763.461 50.1364 769.239 46.3589C775.016 42.5813 781.687 40.6925 789.25 40.6925C795.448 40.6925 800.91 42.0567 805.637 44.7849C810.364 47.4082 814.146 51.0808 816.982 55.8027V42.2665H838.884V119.234C838.884 127.629 836.836 134.869 832.739 140.955C828.747 147.041 823.127 151.71 815.879 154.963C808.736 158.321 800.437 160 790.983 160C782.16 160 774.544 158.531 768.136 155.593C761.833 152.76 756.318 148.72 751.591 143.473L765.142 129.78C768.188 133.242 771.97 135.971 776.487 137.964C781.109 140.063 785.941 141.112 790.983 141.112C795.08 141.112 798.809 140.378 802.171 138.909C805.637 137.44 808.421 135.079 810.522 131.826C812.623 128.678 813.673 124.481 813.673 119.234V111.207C811.152 115.824 807.476 119.339 802.643 121.752C797.916 124.061 792.874 125.215 787.517 125.215ZM796.183 105.226C800.07 105.226 803.536 104.176 806.583 102.078C809.629 99.8741 811.992 97.0934 813.673 93.7356V76.4218C811.992 72.1196 809.419 68.6569 805.952 66.0336C802.486 63.4103 798.809 62.0986 794.923 62.0986C791.351 62.0986 788.147 63.148 785.311 65.2466C782.58 67.2403 780.426 69.9161 778.851 73.2739C777.275 76.6317 776.487 80.2518 776.487 84.1343C776.487 90.2204 778.378 95.2571 782.16 99.2445C785.941 103.232 790.616 105.226 796.183 105.226Z" fill="rgb(51, 68, 227)"/>
<path d="M849.386 100.189C849.386 94.7324 850.909 89.958 853.955 85.8657C857.002 81.7733 861.203 78.5729 866.561 76.2644C871.918 73.851 878.063 72.6443 884.996 72.6443C888.358 72.6443 891.667 72.9591 894.923 73.5887C898.179 74.1133 901.016 74.9003 903.432 75.9496V72.3295C903.432 62.9906 897.917 58.3211 886.887 58.3211C882.265 58.3211 877.906 59.1081 873.809 60.6821C869.817 62.256 865.563 64.5121 861.046 67.4502L853.483 51.3956C864.407 44.2602 876.383 40.6925 889.408 40.6925C901.804 40.6925 911.415 43.6831 918.243 49.6642C925.176 55.5404 928.643 64.0923 928.643 75.32V96.8835C928.643 99.4019 929.01 101.186 929.746 102.235C930.586 103.284 932.004 103.861 934 103.966V124.9C931.794 125.32 929.798 125.635 928.012 125.845C926.227 126.055 924.651 126.159 923.285 126.159C918.558 126.159 914.934 125.215 912.413 123.326C909.997 121.438 908.474 118.867 907.844 115.614L907.371 111.994C903.694 116.716 899.282 120.336 894.135 122.854C888.988 125.268 883.683 126.474 878.221 126.474C872.758 126.474 867.821 125.32 863.409 123.012C859.103 120.703 855.689 117.608 853.167 113.725C850.646 109.738 849.386 105.226 849.386 100.189ZM899.493 103.337C902.119 101.238 903.432 99.0871 903.432 96.8835V89.4858C901.226 88.6464 898.81 88.0168 896.184 87.5971C893.663 87.0724 891.352 86.8101 889.251 86.8101C884.524 86.8101 880.637 87.8594 877.591 89.958C874.649 92.0567 873.179 94.7324 873.179 97.9853C873.179 100.818 874.282 103.284 876.488 105.383C878.799 107.377 881.845 108.374 885.627 108.374C888.148 108.374 890.669 107.901 893.19 106.957C895.711 106.013 897.812 104.806 899.493 103.337Z" fill="rgb(51, 68, 227)"/>
</g>
<defs>
<clipPath id="clip0">
<rect width="934" height="166" fill="rgb(51, 68, 227)"/>
</clipPath>
</defs>
</svg>
